<?xml version="1.0" encoding="iso-8859-1"?>
<!-- Generator: Adobe Illustrator 19.0.0, SVG Export Plug-In . SVG Version: 6.00 Build 0)  -->
<svg version="1.1" id="Layer_1" xmlns="http://www.w3.org/2000/svg" xmlns:xlink="http://www.w3.org/1999/xlink" x="0px" y="0px"
	 viewBox="0 0 512 512" style="enable-background:new 0 0 512 512;" xml:space="preserve">
<path style="fill:#00A2A9;" d="M492.519,500.45L333.23,477.695c-8.407-1.202-14.652-8.401-14.652-16.895V28.444
	c0-10.366,9.188-18.363,19.481-16.895l159.289,22.756C505.755,35.505,512,42.706,512,51.2v432.356
	C512,493.936,502.798,501.918,492.519,500.45z"/>
<path style="fill:#00D8E0;" d="M159.289,483.555V51.2c0-8.494,6.245-15.693,14.652-16.895L333.23,11.549
	c10.307-1.468,19.481,6.542,19.481,16.895V460.8c0,8.493-6.245,15.693-14.652,16.895L178.77,500.45
	C168.467,501.921,159.289,493.91,159.289,483.555z"/>
<path style="fill:#B9F7F9;" d="M173.941,500.45L14.652,477.695C6.245,476.493,0,469.293,0,460.8V28.444
	c0-10.371,9.192-18.363,19.481-16.895L178.77,34.305c8.407,1.2,14.652,8.401,14.652,16.895v432.356
	C193.422,493.936,184.22,501.918,173.941,500.45z"/>
<path style="fill:#FF4F19;" d="M415.289,427.804c-9.425,0-17.067-7.641-17.067-17.067v-35.271c0-9.425,7.641-17.067,17.067-17.067
	c9.425,0,17.067,7.641,17.067,17.067v35.271C432.356,420.163,424.714,427.804,415.289,427.804z"/>
<path style="fill:#FF9900;" d="M415.289,392.533c-25.095,0-45.511-20.416-45.511-45.511c0-25.095,20.416-45.511,45.511-45.511
	c25.095,0,45.511,20.416,45.511,45.511C460.8,372.117,440.384,392.533,415.289,392.533z"/>
<path style="fill:#FF4F19;" d="M96.711,201.386c-9.425,0-17.067-7.641-17.067-17.067v-35.271c0-9.425,7.641-17.067,17.067-17.067
	s17.067,7.641,17.067,17.067v35.271C113.778,193.745,106.136,201.386,96.711,201.386z"/>
<path style="fill:#FF9900;" d="M96.711,166.115c-25.095,0-45.511-20.416-45.511-45.511s20.416-45.511,45.511-45.511
	s45.511,20.416,45.511,45.511S121.806,166.115,96.711,166.115z"/>
<g>
</g>
<g>
</g>
<g>
</g>
<g>
</g>
<g>
</g>
<g>
</g>
<g>
</g>
<g>
</g>
<g>
</g>
<g>
</g>
<g>
</g>
<g>
</g>
<g>
</g>
<g>
</g>
<g>
</g>
</svg>
